<svg enable-background="new 0 0 69.218 70.102" height="71" viewBox="0 0 69.218 70.102" width="70" xmlns="http://www.w3.org/2000/svg"><circle cx="34.609" cy="34.609" fill="#4E068C" r="33.609"/><path d="m34.609 69.218c-19.084 0-34.609-15.525-34.609-34.609s15.525-34.609 34.609-34.609 34.609 15.526 34.609 34.609-15.526 34.609-34.609 34.609zm0-67.218c-17.98 0-32.609 14.629-32.609 32.609s14.628 32.609 32.609 32.609 32.609-14.628 32.609-32.609-14.628-32.609-32.609-32.609z" fill="#4E068C"/><path d="m5.115 49.013c1.464-1.624 11.943-12.854 28.808-12.346 17.642.531 27.601 13.466 28.808 15.09-.507.95-8.948 16.131-25.962 17.278-13.25.893-26.043-7.106-31.654-20.022z" fill="#fff"/><path d="m34.739 70.103c-12.981 0-25.073-8.105-30.541-20.692-.156-.359-.088-.777.174-1.068 1.988-2.205 12.738-13.185 29.582-12.676 17.594.53 27.728 12.999 29.58 15.493.23.31.262.726.08 1.067-.362.678-9.065 16.611-26.777 17.805-.702.048-1.401.071-2.098.071zm-28.442-20.894c5.554 12.14 17.701 19.685 30.404 18.828 15.026-1.013 23.162-13.369 24.833-16.198-2.523-3.208-11.954-13.7-27.642-14.173-14.973-.446-24.877 8.692-27.595 11.543z" fill="#4E068C"/><circle cx="34.609" cy="31.865" fill="#fff" r="13.032"/><path d="m34.609 45.898c-7.737 0-14.032-6.295-14.032-14.032s6.294-14.032 14.032-14.032 14.032 6.295 14.032 14.032-6.295 14.032-14.032 14.032zm0-26.065c-6.634 0-12.032 5.398-12.032 12.032s5.397 12.032 12.032 12.032 12.032-5.397 12.032-12.032-5.397-12.032-12.032-12.032z" fill="#4E068C"/></svg>
