<svg version="1.1" id="Layer_1" xmlns="http://www.w3.org/2000/svg" xmlns:xlink="http://www.w3.org/1999/xlink" x="0px" y="0px" style="enable-background:new 0 0 595.28 841.89;" xml:space="preserve" viewBox="87.97 219.87 419.32 347.05">
<style type="text/css">
	.st0{fill:#7D1AD4;}
</style>
<g>
	<path class="st0" d="M184.61,257.53l-48.24,271.45c-38.59-30.42-55.66-77.56-45.5-135.59   C101.05,335.19,134.98,287.94,184.61,257.53z"/>
	<path class="st0" d="M372.85,467.75l-15.34,85.63c-27.59,8.81-58.04,13.51-90.53,13.51c-18.3,0-35.41-1.49-51.24-4.37l12.56-71.97   v0.49c11.84-68.4,51.31-115.99,97.69-115.99C370.39,375.05,384.69,397.85,372.85,467.75z"/>
	<path class="st0" d="M504.4,393.39c-6.97,39.84-25.07,74.54-51.7,102.22l6.49-36.29c19.73-115.5-5.92-147.23-75.48-148.22   c-75.98,0-116.93,36.68-142.09,110.05h-3.95l44.65-197.98c14.77-2.16,30.13-3.28,45.97-3.28   C452.87,219.89,522.66,289.03,504.4,393.39z"/>
</g>
</svg>